<svg width="24" height="25" viewBox="0 0 24 25" fill="none" xmlns="http://www.w3.org/2000/svg">
<g opacity="0.5">
<path d="M20.317 4.15753C18.7873 3.45564 17.147 2.93853 15.4319 2.64236C15.4007 2.63664 15.3695 2.65092 15.3534 2.67949C15.1424 3.05471 14.9087 3.54421 14.7451 3.92895C12.9004 3.65278 11.0652 3.65278 9.25832 3.92895C9.09465 3.53566 8.85248 3.05471 8.64057 2.67949C8.62449 2.65188 8.59328 2.63759 8.56205 2.64236C6.84791 2.93758 5.20756 3.4547 3.67693 4.15753C3.66368 4.16324 3.65233 4.17277 3.64479 4.18514C0.533392 8.8335 -0.31895 13.3676 0.0991801 17.8455C0.101072 17.8674 0.11337 17.8884 0.130398 17.9017C2.18321 19.4092 4.17171 20.3244 6.12328 20.9311C6.15451 20.9406 6.18761 20.9292 6.20748 20.9034C6.66913 20.273 7.08064 19.6083 7.43348 18.9092C7.4543 18.8683 7.43442 18.8197 7.39186 18.8035C6.73913 18.5559 6.1176 18.254 5.51973 17.9112C5.47244 17.8836 5.46865 17.816 5.51216 17.7836C5.63797 17.6893 5.76382 17.5912 5.88396 17.4922C5.90569 17.4741 5.93598 17.4703 5.96153 17.4817C9.88928 19.275 14.1415 19.275 18.023 17.4817C18.0485 17.4693 18.0788 17.4731 18.1015 17.4912C18.2216 17.5903 18.3475 17.6893 18.4742 17.7836C18.5177 17.816 18.5149 17.8836 18.4676 17.9112C17.8697 18.2607 17.2482 18.5559 16.5945 18.8026C16.552 18.8188 16.533 18.8683 16.5538 18.9092C16.9143 19.6073 17.3258 20.272 17.7789 20.9025C17.7978 20.9292 17.8319 20.9406 17.8631 20.9311C19.8241 20.3244 21.8126 19.4092 23.8654 17.9017C23.8834 17.8884 23.8948 17.8684 23.8967 17.8465C24.3971 12.6695 23.0585 8.17259 20.3482 4.18609C20.3416 4.17277 20.3303 4.16324 20.317 4.15753ZM8.02002 15.1189C6.8375 15.1189 5.86313 14.0333 5.86313 12.7C5.86313 11.3667 6.8186 10.2811 8.02002 10.2811C9.23087 10.2811 10.1958 11.3763 10.1769 12.7C10.1769 14.0333 9.22141 15.1189 8.02002 15.1189ZM15.9947 15.1189C14.8123 15.1189 13.8379 14.0333 13.8379 12.7C13.8379 11.3667 14.7933 10.2811 15.9947 10.2811C17.2056 10.2811 18.1705 11.3763 18.1516 12.7C18.1516 14.0333 17.2056 15.1189 15.9947 15.1189Z" fill="white"/>
</g>
</svg>
