<svg width="192" height="54" viewBox="0 0 192 54" fill="none" xmlns="http://www.w3.org/2000/svg">
<g clip-path="url(#clip0_8_27)">
<path d="M59.8955 41L55.271 41L55.271 29.0117L52.4512 29.0117L52.4512 24.8867L55.271 24.8867L55.271 22.373C55.271 21.2129 55.5449 20.1816 56.0928 19.2793C56.6406 18.3662 57.3926 17.6519 58.3486 17.1362C59.3154 16.6099 60.4111 16.3467 61.6357 16.3467C62.4092 16.3467 63.1987 16.4595 64.0044 16.6851C64.8101 16.8999 65.605 17.2437 66.3892 17.7163L64.6328 21.3096C64.2891 21.0303 63.9238 20.8262 63.5371 20.6973C63.1611 20.5576 62.7852 20.4878 62.4092 20.4878C61.7002 20.4878 61.104 20.7349 60.6206 21.229C60.1372 21.7231 59.8955 22.4053 59.8955 23.2754L59.8955 24.8867L64.7134 24.8867L64.7134 29.0117L59.8955 29.0117L59.8955 41Z" fill="white"/>
<path d="M82.7119 41L78.6836 41L78.4419 39.0825C77.8511 39.7915 77.1206 40.3447 76.2505 40.7422C75.3804 41.1289 74.4243 41.3223 73.3823 41.3223C72.2544 41.3223 71.25 41.1074 70.3691 40.6777C69.4883 40.2373 68.7954 39.6357 68.2905 38.873C67.7856 38.0996 67.5332 37.2241 67.5332 36.2466C67.5332 35.2153 67.8071 34.3076 68.355 33.5234C68.9028 32.7393 69.6548 32.127 70.6108 31.6865C71.5776 31.2354 72.6733 31.0098 73.8979 31.0098C74.6177 31.0098 75.3374 31.0903 76.0571 31.2515C76.7876 31.4126 77.4644 31.6382 78.0874 31.9282L78.0874 31.5093C78.0874 30.8647 77.9048 30.3115 77.5396 29.8496C77.1851 29.377 76.6909 29.0117 76.0571 28.7539C75.4341 28.4961 74.7358 28.3672 73.9624 28.3672C73.2212 28.3672 72.4854 28.4854 71.7549 28.7217C71.0352 28.958 70.3691 29.3125 69.7568 29.7852L68.5 26.2563C69.585 25.6978 70.6807 25.2788 71.7871 24.9995C72.9043 24.7095 73.9839 24.5645 75.0259 24.5645C76.5942 24.5645 77.9531 24.876 79.1025 25.499C80.252 26.1113 81.1382 26.9814 81.7612 28.1094C82.395 29.2266 82.7119 30.5532 82.7119 32.0894L82.7119 41ZM74.3975 37.7612C75.0098 37.7612 75.5952 37.627 76.1538 37.3584C76.7124 37.0898 77.1636 36.7246 77.5073 36.2627C77.8618 35.8008 78.0498 35.2905 78.0713 34.7319L78.0713 34.6191C77.5986 34.2969 77.0723 34.0498 76.4922 33.8779C75.9229 33.6953 75.3428 33.604 74.752 33.604C73.8711 33.604 73.1514 33.7974 72.5928 34.1841C72.0342 34.5708 71.7549 35.0703 71.7549 35.6826C71.7549 36.0801 71.8677 36.4399 72.0933 36.7622C72.3296 37.0737 72.6465 37.3208 73.0439 37.5034C73.4414 37.6753 73.8926 37.7612 74.3975 37.7612Z" fill="white"/>
<path d="M102.402 41L97.7778 41L97.7778 32.75C97.7778 31.4932 97.4771 30.5103 96.8755 29.8013C96.2847 29.0815 95.4736 28.7217 94.4424 28.7217C93.3682 28.7217 92.5142 29.0977 91.8804 29.8496C91.2573 30.5908 90.9458 31.6006 90.9458 32.8789L90.9458 41L86.3213 41L86.3213 24.8867L90.0596 24.8867L90.2207 27.4648C90.8008 26.5195 91.5581 25.7998 92.4927 25.3057C93.4272 24.8115 94.5283 24.5645 95.7959 24.5645C97.8477 24.5645 99.459 25.1982 100.63 26.4658C101.812 27.7227 102.402 29.4629 102.402 31.6865L102.402 41Z" fill="white"/>
<path d="M104.884 39.6143L105.899 35.6826C106.221 36.0371 106.651 36.3647 107.188 36.6655C107.736 36.9663 108.321 37.208 108.944 37.3906C109.578 37.5625 110.174 37.6484 110.733 37.6484C111.399 37.6484 111.92 37.5249 112.296 37.2778C112.672 37.02 112.86 36.6763 112.86 36.2466C112.86 35.8921 112.731 35.5967 112.473 35.3604C112.226 35.1133 111.888 34.8984 111.458 34.7158C111.039 34.5225 110.572 34.3345 110.056 34.1519C109.358 33.8833 108.638 33.5718 107.897 33.2173C107.167 32.8628 106.549 32.3794 106.044 31.7671C105.539 31.1548 105.287 30.3438 105.287 29.334C105.287 28.3672 105.539 27.5293 106.044 26.8203C106.549 26.1006 107.263 25.5474 108.187 25.1606C109.111 24.7632 110.185 24.5645 111.41 24.5645C113.397 24.5645 115.379 25.064 117.355 26.063L116.05 29.7207C115.707 29.4521 115.277 29.2051 114.761 28.9795C114.246 28.7432 113.714 28.5552 113.166 28.4155C112.629 28.2759 112.146 28.2061 111.716 28.2061C111.189 28.2061 110.776 28.3135 110.475 28.5283C110.185 28.7432 110.04 29.0386 110.04 29.4146C110.04 29.6938 110.142 29.9463 110.346 30.1719C110.55 30.3867 110.851 30.5962 111.249 30.8003C111.657 30.9937 112.156 31.2031 112.747 31.4287C113.478 31.6973 114.213 32.0195 114.955 32.3955C115.707 32.7607 116.335 33.2549 116.84 33.8779C117.355 34.4902 117.613 35.3066 117.613 36.3271C117.613 37.3262 117.339 38.2017 116.792 38.9536C116.254 39.7056 115.492 40.291 114.503 40.71C113.526 41.1182 112.376 41.3223 111.055 41.3223C108.853 41.3223 106.796 40.7529 104.884 39.6143Z" fill="white"/>
<path d="M142.17 38.438C141.386 39.3403 140.424 40.0493 139.286 40.5649C138.147 41.0698 136.896 41.3223 135.531 41.3223C133.877 41.3223 132.395 40.9624 131.084 40.2427C129.784 39.5122 128.758 38.5132 128.006 37.2456C127.265 35.978 126.895 34.5439 126.895 32.9434C126.895 31.332 127.265 29.8979 128.006 28.6411C128.758 27.3735 129.784 26.3799 131.084 25.6602C132.395 24.9297 133.877 24.5645 135.531 24.5645C136.885 24.5645 138.131 24.8169 139.27 25.3218C140.408 25.8267 141.37 26.5249 142.154 27.4165L139.431 30.2686C139.012 29.7852 138.48 29.4092 137.835 29.1406C137.202 28.8613 136.536 28.7217 135.837 28.7217C135.032 28.7217 134.312 28.9043 133.678 29.2695C133.044 29.624 132.545 30.1182 132.18 30.752C131.814 31.375 131.632 32.0947 131.632 32.9111C131.632 33.7383 131.814 34.4741 132.18 35.1187C132.545 35.7632 133.044 36.2681 133.678 36.6333C134.312 36.9878 135.032 37.165 135.837 37.165C136.536 37.165 137.207 37.0308 137.852 36.7622C138.496 36.4829 139.022 36.1016 139.431 35.6182L142.17 38.438Z" fill="white"/>
<path d="M149.953 41L145.006 41L145.006 16.1855L149.953 16.1855L149.953 41Z" fill="white"/>
<path d="M169.659 41L165.905 41L165.744 38.4219C165.174 39.3672 164.417 40.0869 163.472 40.5811C162.537 41.0752 161.441 41.3223 160.185 41.3223C158.122 41.3223 156.505 40.6885 155.334 39.4209C154.164 38.1533 153.578 36.4131 153.578 34.2002L153.578 24.8867L158.203 24.8867L158.203 33.1367C158.203 34.3936 158.498 35.3818 159.089 36.1016C159.69 36.8105 160.507 37.165 161.538 37.165C162.612 37.165 163.461 36.7944 164.084 36.0532C164.718 35.3013 165.035 34.2861 165.035 33.0078L165.035 24.8867L169.659 24.8867L169.659 41Z" fill="white"/>
<path d="M177.651 41L173.591 41L173.591 16.8301L178.215 16.8301L178.215 26.7236C178.892 26.0469 179.676 25.5205 180.568 25.1445C181.47 24.7578 182.448 24.5645 183.5 24.5645C184.983 24.5645 186.299 24.9297 187.448 25.6602C188.598 26.3799 189.505 27.3735 190.171 28.6411C190.837 29.8979 191.17 31.332 191.17 32.9434C191.17 34.5439 190.837 35.978 190.171 37.2456C189.505 38.5132 188.598 39.5122 187.448 40.2427C186.299 40.9624 184.983 41.3223 183.5 41.3223C182.362 41.3223 181.309 41.1021 180.342 40.6616C179.386 40.2104 178.564 39.5928 177.877 38.8086L177.651 41ZM182.324 37.1812C183.108 37.1812 183.807 36.9985 184.419 36.6333C185.042 36.2681 185.531 35.7632 185.885 35.1187C186.25 34.4741 186.433 33.7437 186.433 32.9272C186.433 32.1216 186.25 31.4019 185.885 30.7681C185.531 30.1235 185.042 29.6187 184.419 29.2534C183.807 28.8882 183.108 28.7056 182.324 28.7056C181.583 28.7056 180.906 28.8721 180.294 29.2051C179.692 29.5381 179.209 29.9946 178.844 30.5747C178.479 31.1548 178.269 31.8208 178.215 32.5728L178.215 33.2817C178.269 34.0337 178.479 34.7051 178.844 35.2959C179.209 35.876 179.692 36.3379 180.294 36.6816C180.896 37.0146 181.572 37.1812 182.324 37.1812Z" fill="white"/>
<g filter="url(#filter0_f_8_27)">
<rect x="10.1108" y="11.4001" width="26.6577" height="5.68167" rx="2.84084" transform="rotate(-0.130307 10.1108 11.4001)" fill="url(#paint0_linear_8_27)"/>
</g>
<rect x="6" y="7.07922" width="34.8601" height="13.6706" rx="6.83531" transform="rotate(-0.130307 6 7.07922)" fill="url(#paint1_linear_8_27)"/>
<path fill-rule="evenodd" clip-rule="evenodd" d="M35.4678 28.8853C30.1682 28.8973 25.8818 33.2032 25.8939 38.5028C25.9059 43.8024 30.2119 48.0887 35.5114 48.0767L40.789 48.0647L40.7727 40.8679L36.4544 40.8777C35.1295 40.8807 34.053 39.8091 34.05 38.4842C34.047 37.1593 35.1186 36.0829 36.4435 36.0799L40.7618 36.07L40.7454 28.8733L35.4678 28.8853Z" fill="#01DDB4"/>
<rect x="7.40093" y="22.1138" width="20.5059" height="10.9365" rx="5.46825" transform="rotate(-0.130307 7.40093 22.1138)" stroke="#B6E2FA" stroke-width="2.73412"/>
<path d="M6.07756 41.2557C6.06897 37.4807 9.12228 34.4135 12.8973 34.4049L19.7326 34.3893L19.7481 41.2246C19.7567 44.9996 16.7034 48.0669 12.9284 48.0754C9.15337 48.084 6.08614 45.0307 6.07756 41.2557Z" fill="url(#paint2_linear_8_27)"/>
<g filter="url(#filter1_f_8_27)">
<rect x="9.4873" y="37.8303" width="6.83531" height="6.83531" rx="3.41765" transform="rotate(-0.130307 9.4873 37.8303)" fill="url(#paint3_linear_8_27)"/>
</g>
<circle cx="122" cy="33" r="3" fill="url(#paint4_linear_8_27)"/>
</g>
<defs>
<filter id="filter0_f_8_27" x="-3.55342" y="-2.32467" width="53.9989" height="33.0706" filterUnits="userSpaceOnUse" color-interpolation-filters="sRGB">
<feFlood flood-opacity="0" result="BackgroundImageFix"/>
<feBlend mode="normal" in="SourceGraphic" in2="BackgroundImageFix" result="shape"/>
<feGaussianBlur stdDeviation="6.83531" result="effect1_foregroundBlur_8_27"/>
</filter>
<filter id="filter1_f_8_27" x="-4.1755" y="24.1519" width="34.1767" height="34.1766" filterUnits="userSpaceOnUse" color-interpolation-filters="sRGB">
<feFlood flood-opacity="0" result="BackgroundImageFix"/>
<feBlend mode="normal" in="SourceGraphic" in2="BackgroundImageFix" result="shape"/>
<feGaussianBlur stdDeviation="6.83531" result="effect1_foregroundBlur_8_27"/>
</filter>
<linearGradient id="paint0_linear_8_27" x1="36.7685" y1="11.4001" x2="30.2579" y2="26.041" gradientUnits="userSpaceOnUse">
<stop stop-color="#B04AFD"/>
<stop offset="0.494792" stop-color="#6A6FF8"/>
<stop offset="1" stop-color="#00BFE7"/>
</linearGradient>
<linearGradient id="paint1_linear_8_27" x1="40.8601" y1="7.07922" x2="20.1811" y2="32.3529" gradientUnits="userSpaceOnUse">
<stop stop-color="#B04AFD"/>
<stop offset="0.494792" stop-color="#6A6FF8"/>
<stop offset="1" stop-color="#00BFE7"/>
</linearGradient>
<linearGradient id="paint2_linear_8_27" x1="19.7326" y1="34.3893" x2="3.3055" y2="42.3087" gradientUnits="userSpaceOnUse">
<stop stop-color="#B04AFD"/>
<stop offset="0.494792" stop-color="#6A6FF8"/>
<stop offset="1" stop-color="#00BFE7"/>
</linearGradient>
<linearGradient id="paint3_linear_8_27" x1="16.3226" y1="37.8303" x2="8.10008" y2="41.7713" gradientUnits="userSpaceOnUse">
<stop stop-color="#B04AFD"/>
<stop offset="0.494792" stop-color="#6A6FF8"/>
<stop offset="1" stop-color="#00BFE7"/>
</linearGradient>
<linearGradient id="paint4_linear_8_27" x1="125" y1="30" x2="117.782" y2="33.4594" gradientUnits="userSpaceOnUse">
<stop stop-color="#B04AFD"/>
<stop offset="0.494792" stop-color="#6A6FF8"/>
<stop offset="1" stop-color="#00BFE7"/>
</linearGradient>
<clipPath id="clip0_8_27">
<rect width="190.996" height="52.8213" fill="white" transform="translate(0.0375977 0.643311) rotate(-0.130307)"/>
</clipPath>
</defs>
</svg>
