<svg width="24" height="25" viewBox="0 0 24 25" fill="none" xmlns="http://www.w3.org/2000/svg">
<g opacity="0.5">
<path d="M7.55016 21.7517C16.6045 21.7517 21.5583 14.2484 21.5583 7.74357C21.5583 7.53263 21.5536 7.31701 21.5442 7.10607C22.5079 6.40917 23.3395 5.54596 24 4.55701C23.1025 4.95631 22.1496 5.21709 21.1739 5.33044C22.2013 4.71462 22.9705 3.74718 23.3391 2.60748C22.3726 3.18027 21.3156 3.58432 20.2134 3.80232C19.4708 3.01327 18.489 2.49083 17.4197 2.31576C16.3504 2.14069 15.2532 2.32276 14.2977 2.83381C13.3423 3.34485 12.5818 4.15641 12.1338 5.14302C11.6859 6.12963 11.5754 7.23632 11.8195 8.29201C9.86249 8.1938 7.94794 7.68541 6.19998 6.79981C4.45203 5.9142 2.90969 4.67115 1.67297 3.15123C1.0444 4.23495 0.852057 5.51735 1.13503 6.7378C1.418 7.95825 2.15506 9.02516 3.19641 9.72169C2.41463 9.69687 1.64998 9.48639 0.965625 9.10763V9.16857C0.964925 10.3059 1.3581 11.4083 2.07831 12.2885C2.79852 13.1687 3.80132 13.7723 4.91625 13.9967C4.19206 14.1948 3.43198 14.2237 2.69484 14.0811C3.00945 15.0591 3.62157 15.9146 4.44577 16.528C5.26997 17.1415 6.26512 17.4823 7.29234 17.5029C5.54842 18.8728 3.39417 19.6158 1.17656 19.6123C0.783287 19.6117 0.390399 19.5876 0 19.5401C2.25286 20.9855 4.87353 21.7531 7.55016 21.7517Z" fill="white"/>
</g>
</svg>
